<svg width="14" height="14" viewBox="0 0 14 14" fill="none" xmlns="http://www.w3.org/2000/svg">
<path d="M7.12587 12.4488C10.1672 12.4488 12.7361 9.87983 12.7361 6.83851C12.7361 3.7972 10.1672 1.22827 7.12587 1.22827C4.08456 1.22827 1.51562 3.7972 1.51562 6.83851C1.51562 9.87983 4.08456 12.4488 7.12587 12.4488ZM7.12587 2.35032C9.55903 2.35032 11.6141 4.40535 11.6141 6.83851C11.6141 9.27168 9.55903 11.3267 7.12587 11.3267C4.69271 11.3267 2.63767 9.27168 2.63767 6.83851C2.63767 4.40535 4.69271 2.35032 7.12587 2.35032Z" fill="#1E1D1D"/>
<path d="M7.12739 9.64345C7.63287 9.64345 8.57539 9.54919 9.2071 8.9186L8.41382 8.12419C8.16528 8.37273 7.68392 8.5214 7.12739 8.5214C6.21516 8.5214 5.44431 7.75055 5.44431 6.83832C5.44431 5.9261 6.21516 5.15525 7.12739 5.15525C7.68448 5.15525 8.16584 5.30392 8.41382 5.5519L9.2071 4.75861C8.57595 4.12746 7.63287 4.0332 7.12739 4.0332C5.58064 4.0332 4.32227 5.29158 4.32227 6.83832C4.32227 8.38507 5.58064 9.64345 7.12739 9.64345Z" fill="#1E1D1D"/>
</svg>
