<svg width="24" height="23" viewBox="0 0 24 23" fill="none" xmlns="http://www.w3.org/2000/svg">
<path d="M11.7914 7.4209C10.6447 7.4209 9.54497 7.87642 8.73414 8.68726C7.9233 9.4981 7.46777 10.5978 7.46777 11.7445C7.46777 12.8912 7.9233 13.991 8.73414 14.8018C9.54497 15.6126 10.6447 16.0682 11.7914 16.0682C12.9381 16.0682 14.0378 15.6126 14.8487 14.8018C15.6595 13.991 16.115 12.8912 16.115 11.7445C16.115 10.5978 15.6595 9.4981 14.8487 8.68726C14.0378 7.87642 12.9381 7.4209 11.7914 7.4209ZM11.7914 14.5525C11.0464 14.5525 10.332 14.2565 9.80524 13.7298C9.27847 13.203 8.98254 12.4885 8.98254 11.7436C8.98254 10.9986 9.27847 10.2842 9.80524 9.75743C10.332 9.23066 11.0464 8.93473 11.7914 8.93473C12.5364 8.93473 13.2508 9.23066 13.7776 9.75743C14.3043 10.2842 14.6003 10.9986 14.6003 11.7436C14.6003 12.4885 14.3043 13.203 13.7776 13.7298C13.2508 14.2565 12.5364 14.5525 11.7914 14.5525Z" fill="#1E1D1D"/>
<path d="M16.2863 8.26985C16.843 8.26985 17.2943 7.81857 17.2943 7.26188C17.2943 6.70519 16.843 6.25391 16.2863 6.25391C15.7296 6.25391 15.2783 6.70519 15.2783 7.26188C15.2783 7.81857 15.7296 8.26985 16.2863 8.26985Z" fill="#1E1D1D"/>
<path d="M19.7711 6.237C19.5546 5.67801 19.2238 5.17038 18.7999 4.7466C18.376 4.32282 17.8682 3.99222 17.3091 3.77597C16.6549 3.53039 15.9638 3.3976 15.2651 3.38326C14.3647 3.34398 14.0795 3.33276 11.7961 3.33276C9.51277 3.33276 9.2201 3.33276 8.32714 3.38326C7.62903 3.39687 6.93838 3.52968 6.28501 3.77597C5.7258 3.99197 5.21791 4.32248 4.79393 4.74629C4.36996 5.17011 4.03926 5.67787 3.82305 6.237C3.57742 6.89117 3.44493 7.58237 3.43127 8.281C3.39106 9.18051 3.37891 9.46569 3.37891 11.75C3.37891 14.0334 3.37891 14.3242 3.43127 15.219C3.44529 15.9184 3.57713 16.6085 3.82305 17.2639C4.03987 17.8229 4.37089 18.3304 4.79497 18.7542C5.21904 19.1779 5.72685 19.5086 6.28595 19.725C6.93808 19.9804 7.62901 20.1227 8.32901 20.1457C9.22945 20.185 9.51464 20.1972 11.798 20.1972C14.0814 20.1972 14.374 20.1972 15.267 20.1457C15.9656 20.1315 16.6567 19.9991 17.311 19.7539C17.8699 19.5372 18.3775 19.2063 18.8014 18.7824C19.2253 18.3585 19.5562 17.8509 19.773 17.292C20.0189 16.6375 20.1507 15.9474 20.1648 15.248C20.205 14.3485 20.2171 14.0633 20.2171 11.779C20.2171 9.49468 20.2171 9.20482 20.1648 8.30998C20.1539 7.60148 20.0207 6.90018 19.7711 6.237ZM18.6322 15.1498C18.6262 15.6887 18.5278 16.2225 18.3414 16.7282C18.201 17.0918 17.986 17.422 17.7103 17.6975C17.4346 17.973 17.1043 18.1878 16.7406 18.328C16.2406 18.5136 15.7124 18.6119 15.1791 18.6188C14.2908 18.6599 14.0402 18.6702 11.7625 18.6702C9.48285 18.6702 9.25002 18.6702 8.34491 18.6188C7.81186 18.6123 7.28394 18.5139 6.78432 18.328C6.41936 18.1887 6.08772 17.9743 5.81084 17.6987C5.53397 17.4231 5.31803 17.0925 5.17699 16.7282C4.9932 16.228 4.8949 15.7004 4.88619 15.1676C4.84598 14.2793 4.83663 14.0287 4.83663 11.7509C4.83663 9.47224 4.83663 9.23941 4.88619 8.33336C4.89224 7.7948 4.99059 7.26126 5.17699 6.75595C5.46218 6.0182 6.04658 5.43754 6.78432 5.15516C7.28419 4.97015 7.81196 4.87181 8.34491 4.86436C9.23413 4.82415 9.48379 4.81293 11.7625 4.81293C14.0412 4.81293 14.2749 4.81293 15.1791 4.86436C15.7125 4.87078 16.2407 4.96915 16.7406 5.15516C17.1043 5.29567 17.4346 5.51066 17.7102 5.78634C17.9859 6.06201 18.2009 6.39228 18.3414 6.75595C18.5252 7.25615 18.6235 7.78371 18.6322 8.31653C18.6724 9.20575 18.6827 9.45541 18.6827 11.7341C18.6827 14.0119 18.6827 14.2568 18.6425 15.1507H18.6322V15.1498Z" fill="#1E1D1D"/>
</svg>
