<svg width="44" height="47" viewBox="0 0 44 47" fill="none" xmlns="http://www.w3.org/2000/svg">
<path d="M37 34L18 27.4275L18.0073 0L20.6752 25.1149L37 34Z" fill="#111110"/>
<path d="M7.42622 35.6607C0.854957 27.1865 1.93871 15.2129 9.61281 8.02344C9.0633 8.37033 8.52142 8.74391 7.99862 9.14799C-1.0111 16.1202 -2.65582 29.0658 4.32376 38.0622C11.3033 47.0586 24.2627 48.7054 33.2686 41.7332C33.7952 41.3253 34.2913 40.8946 34.7683 40.4448C25.8807 46.0789 14.0013 44.1348 7.42622 35.6607Z" fill="#111110"/>
<path d="M37.9045 10.01C34.3617 6.59813 29.7915 4.88473 25.2138 4.85854C24.4962 4.8548 24.1072 4.8361 23.9863 4.82861C24.6095 4.88099 31.8349 5.60301 37.0622 10.8741C45.7266 19.6095 41.5493 31.536 42.4067 29.1417C44.7295 22.651 43.2112 15.1277 37.9045 10.01Z" fill="#111110"/>
</svg>
