<svg width="25" height="25" viewBox="0 0 25 25" fill="none" xmlns="http://www.w3.org/2000/svg">
<path d="M8.86133 10.2666C8.86133 9.40465 9.20374 8.578 9.81323 7.9685C10.4227 7.35901 11.2494 7.0166 12.1113 7.0166C12.9733 7.0166 13.7999 7.35901 14.4094 7.9685C15.0189 8.578 15.3613 9.40465 15.3613 10.2666C15.3613 11.1286 15.0189 11.9552 14.4094 12.5647C13.7999 13.1742 12.9733 13.5166 12.1113 13.5166C11.2494 13.5166 10.4227 13.1742 9.81323 12.5647C9.20374 11.9552 8.86133 11.1286 8.86133 10.2666Z" fill="black"/>
<path fill-rule="evenodd" clip-rule="evenodd" d="M3.88467 9.1436C4.05101 7.13335 4.96689 5.25907 6.45063 3.89259C7.93437 2.5261 9.87755 1.76726 11.8947 1.7666H12.3267C14.3438 1.76726 16.287 2.5261 17.7707 3.89259C19.2544 5.25907 20.1703 7.13335 20.3367 9.1436C20.5213 11.388 19.8284 13.6165 18.4037 15.3606L13.6107 21.2226C13.429 21.445 13.2002 21.6241 12.9408 21.7472C12.6813 21.8702 12.3978 21.9341 12.1107 21.9341C11.8235 21.9341 11.54 21.8702 11.2806 21.7472C11.0212 21.6241 10.7923 21.445 10.6107 21.2226L5.81867 15.3606C4.39363 13.6167 3.70037 11.3881 3.88467 9.1436ZM12.1107 5.5166C10.8509 5.5166 9.64271 6.01705 8.75191 6.90784C7.86112 7.79864 7.36067 9.00682 7.36067 10.2666C7.36067 11.5264 7.86112 12.7346 8.75191 13.6254C9.64271 14.5162 10.8509 15.0166 12.1107 15.0166C13.3704 15.0166 14.5786 14.5162 15.4694 13.6254C16.3602 12.7346 16.8607 11.5264 16.8607 10.2666C16.8607 9.00682 16.3602 7.79864 15.4694 6.90784C14.5786 6.01705 13.3704 5.5166 12.1107 5.5166Z" fill="black"/>
</svg>
