<svg width="25" height="25" viewBox="0 0 25 25" fill="none" xmlns="http://www.w3.org/2000/svg">
<path d="M6.73133 11.0566C8.17133 13.8866 10.4913 16.2066 13.3213 17.6466L15.5213 15.4466C15.8013 15.1666 16.1913 15.0866 16.5413 15.1966C17.6613 15.5666 18.8613 15.7666 20.1113 15.7666C20.3765 15.7666 20.6309 15.872 20.8184 16.0595C21.006 16.247 21.1113 16.5014 21.1113 16.7666V20.2666C21.1113 20.5318 21.006 20.7862 20.8184 20.9737C20.6309 21.1612 20.3765 21.2666 20.1113 21.2666C15.6026 21.2666 11.2786 19.4755 8.09051 16.2874C4.90239 13.0993 3.11133 8.77528 3.11133 4.2666C3.11133 4.00139 3.21668 3.74703 3.40422 3.55949C3.59176 3.37196 3.84611 3.2666 4.11133 3.2666H7.61133C7.87654 3.2666 8.1309 3.37196 8.31843 3.55949C8.50597 3.74703 8.61133 4.00139 8.61133 4.2666C8.61133 5.5166 8.81133 6.7166 9.18133 7.8366C9.29133 8.1866 9.21133 8.5766 8.93133 8.8566L6.73133 11.0566Z" fill="black"/>
</svg>
