<svg width="23" height="23" viewBox="0 0 23 23" fill="none" xmlns="http://www.w3.org/2000/svg">
<path d="M18.5364 8.00035C18.5486 8.16399 18.5486 8.32668 18.5486 8.48938C18.5486 13.4685 14.7588 19.2059 7.83299 19.2059C5.69923 19.2059 3.71694 18.5878 2.04883 17.5144C2.35178 17.549 2.64351 17.5611 2.95862 17.5611C4.65384 17.5652 6.30106 16.9984 7.63476 15.9519C6.84878 15.9377 6.08687 15.6784 5.4554 15.2102C4.82394 14.742 4.35444 14.0883 4.11246 13.3404C4.34529 13.375 4.57905 13.3983 4.82403 13.3983C5.16158 13.3983 5.501 13.3516 5.81611 13.2702C4.96312 13.098 4.19612 12.6357 3.64552 11.9618C3.09492 11.288 2.7947 10.4442 2.79593 9.57403V9.52727C3.29804 9.80685 3.88057 9.9817 4.4977 10.0051C3.9807 9.66153 3.55679 9.19536 3.26376 8.64814C2.97074 8.10092 2.81772 7.48969 2.81837 6.86895C2.81837 6.16954 3.00444 5.52811 3.33077 4.96895C4.27716 6.1331 5.45752 7.08547 6.79541 7.7644C8.13329 8.44333 9.59887 8.83367 11.0972 8.91015C11.0392 8.62964 11.0037 8.33884 11.0037 8.0471C11.0035 7.55243 11.1007 7.06256 11.2899 6.6055C11.4791 6.14843 11.7565 5.73314 12.1063 5.38335C12.4561 5.03356 12.8714 4.75615 13.3284 4.56696C13.7855 4.37777 14.2754 4.28052 14.7701 4.28076C15.8547 4.28076 16.8337 4.73519 17.5219 5.47013C18.3651 5.30708 19.1737 4.99927 19.9118 4.56034C19.6308 5.43069 19.042 6.16871 18.2559 6.63613C19.0037 6.55083 19.7346 6.35417 20.4242 6.05266C19.9092 6.80359 19.2709 7.46209 18.5364 8.00035Z" fill="#1E1D1D"/>
</svg>
