<svg width="51" height="52" viewBox="0 0 51 52" fill="none" xmlns="http://www.w3.org/2000/svg">
<path d="M7.16943 34.7707L34.3435 7.59445M39.5479 23.879L34.8879 28.539M30.9121 32.4661L28.8384 34.5398M8.55472 47.0603H42.4456M6.80723 34.6499C6.01818 33.8612 5.39225 32.9247 4.96521 31.894C4.53816 30.8632 4.31836 29.7585 4.31836 28.6428C4.31836 27.5271 4.53816 26.4223 4.96521 25.3916C5.39225 24.3609 6.01818 23.4244 6.80723 22.6356L22.2572 7.18564C23.046 6.39659 23.9825 5.77067 25.0132 5.34362C26.0439 4.91658 27.1487 4.69678 28.2644 4.69678C29.3801 4.69678 30.4848 4.91658 31.5155 5.34362C32.5463 5.77067 33.4828 6.39659 34.2715 7.18564L44.1931 17.1072C44.9821 17.896 45.608 18.8325 46.0351 19.8632C46.4621 20.8939 46.6819 21.9987 46.6819 23.1143C46.6819 24.23 46.4621 25.3348 46.0351 26.3655C45.608 27.3962 44.9821 28.3327 44.1931 29.1215L28.7431 44.5715C27.9543 45.3605 27.0178 45.9865 25.9871 46.4135C24.9564 46.8405 23.8516 47.0604 22.7359 47.0604C21.6202 47.0604 20.5155 46.8405 19.4848 46.4135C18.454 45.9865 17.5175 45.3605 16.7288 44.5715L6.80723 34.6499Z" stroke="#051223" stroke-width="3.17727" stroke-linecap="round" stroke-linejoin="round"/>
</svg>
