<svg width="62" height="63" viewBox="0 0 62 63" fill="none" xmlns="http://www.w3.org/2000/svg">
<path d="M42.1297 25.7011C42.4302 25.4036 42.6019 25 42.6079 24.5772C42.6139 24.1544 42.4536 23.7462 42.1617 23.4403C41.8697 23.1344 41.4693 22.9554 41.0466 22.9418C40.624 22.9281 40.2129 23.0809 39.9018 23.3673L26.8426 35.8327L22.1492 31.138C21.8466 30.8354 21.4362 30.6654 21.0082 30.6654C20.5802 30.6654 20.1697 30.8354 19.8671 31.138C19.5645 31.4406 19.3944 31.8511 19.3944 32.2791C19.3944 32.7071 19.5645 33.1175 19.8671 33.4202L25.6757 39.2288C26.2953 39.8484 27.297 39.8613 27.9308 39.2546L42.1297 25.7011ZM32.1285 6.58935C31.8281 6.30139 31.4281 6.14062 31.012 6.14062C30.5958 6.14062 30.1958 6.30139 29.8954 6.58935C26.3341 10.001 21.2663 11.852 16.9395 12.8369C14.7968 13.3222 12.8877 13.5855 11.5155 13.7275C10.8055 13.8004 10.0936 13.8529 9.38053 13.885H9.35213C8.93095 13.8951 8.53043 14.0696 8.23616 14.3711C7.94189 14.6726 7.77722 15.0772 7.77734 15.4985V27.7612C7.77734 34.0049 9.38182 40.2279 13.0671 45.5422C16.7601 50.8681 22.4771 55.1833 30.5305 57.6991C30.8442 57.7972 31.1798 57.7972 31.4934 57.6991C47.7151 52.63 54.2466 40.3428 54.2466 28.084V15.4985C54.2467 15.0772 54.082 14.6726 53.7878 14.3711C53.4935 14.0696 53.093 13.8951 52.6718 13.885H52.6434L52.5401 13.8811L52.1167 13.8592C51.5797 13.8269 51.0435 13.783 50.5084 13.7275C48.6844 13.5379 46.8732 13.2405 45.0844 12.8369C40.7563 11.852 35.6886 10.001 32.1285 6.58935ZM11.0044 27.7612V17.0152C11.2591 16.9946 11.5392 16.9688 11.8447 16.9378C13.7983 16.736 15.738 16.417 17.6533 15.9826C21.8098 15.039 26.9614 13.2693 31.012 9.91319C35.0612 13.2693 40.2155 15.0377 44.3693 15.9826C46.5598 16.4787 48.7818 16.8237 51.0196 17.0152V28.084C51.0196 38.9397 45.4123 49.7683 31.012 54.4656C23.835 52.124 18.8912 48.2787 15.7184 43.7028C12.4656 39.0133 11.0044 33.4576 11.0044 27.7612Z" fill="#051223"/>
</svg>
