<svg width="27" height="27" viewBox="0 0 27 27" fill="none" xmlns="http://www.w3.org/2000/svg">
<path d="M12.375 10.125H24.75M2.25 12.375L5.40788 8.82337C5.83006 8.34827 6.3481 7.96799 6.92789 7.70757C7.50767 7.44715 8.13604 7.31251 8.77162 7.3125H9M2.25 21.9375H8.4375L12.9375 18.5625C12.9375 18.5625 13.8487 17.9471 15.1875 16.875C18 14.625 15.1875 11.0632 12.375 12.9375C10.0845 14.4641 7.875 15.75 7.875 15.75" stroke="#FBE6E6" stroke-width="1.5" stroke-linecap="round" stroke-linejoin="round"/>
<path d="M9 15.1875V7.875C9 7.27826 9.23705 6.70597 9.65901 6.28401C10.081 5.86205 10.6533 5.625 11.25 5.625H22.5C23.0967 5.625 23.669 5.86205 24.091 6.28401C24.5129 6.70597 24.75 7.27826 24.75 7.875V14.625C24.75 15.2217 24.5129 15.794 24.091 16.216C23.669 16.6379 23.0967 16.875 22.5 16.875H15.1875" stroke="#FBE6E6" stroke-width="1.5"/>
</svg>
