<svg width="41" height="41" viewBox="0 0 41 41" fill="none" xmlns="http://www.w3.org/2000/svg">
<path d="M33.4899 13.2147L21.4846 25.0304C21.2226 25.2896 20.869 25.4349 20.5006 25.4349C20.1321 25.4349 19.7785 25.2896 19.5166 25.0304L7.51126 13.2173C7.24769 12.9583 6.89294 12.8132 6.52341 12.8132C6.15388 12.8132 5.79913 12.9583 5.53557 13.2173C5.40578 13.3438 5.30263 13.4951 5.23221 13.6621C5.16178 13.8291 5.1255 14.0085 5.1255 14.1898C5.1255 14.371 5.16178 14.5505 5.23221 14.7175C5.30263 14.8845 5.40578 15.0357 5.53557 15.1622L17.5383 26.9754C18.3289 27.7516 19.3926 28.1865 20.5006 28.1865C21.6085 28.1865 22.6722 27.7516 23.4628 26.9754L35.4656 15.1622C35.5957 15.0357 35.6992 14.8843 35.7699 14.717C35.8405 14.5498 35.877 14.3701 35.877 14.1885C35.877 14.0069 35.8405 13.8272 35.7699 13.66C35.6992 13.4927 35.5957 13.3413 35.4656 13.2147C35.202 12.9557 34.8473 12.8106 34.4777 12.8106C34.1082 12.8106 33.7534 12.9557 33.4899 13.2147Z" fill="black"/>
</svg>
