<svg width="30" height="33" viewBox="0 0 30 33" fill="none" xmlns="http://www.w3.org/2000/svg">
<path d="M15.4973 29.3257L14.5765 28.4936C12.594 26.6828 10.9541 25.1328 9.65674 23.8435C8.36019 22.5534 7.33655 21.4156 6.58582 20.43C5.8351 19.4444 5.31032 18.5536 5.01149 17.7575C4.71266 16.9614 4.56365 16.1593 4.56446 15.3511C4.56446 13.8059 5.08923 12.5085 6.13879 11.459C7.18834 10.4094 8.48571 9.88464 10.0309 9.88464C11.0999 9.88464 12.1021 10.158 13.0374 10.7046C13.9728 11.2513 14.7928 12.0465 15.4973 13.0904C16.2019 12.0465 17.0218 11.2513 17.9572 10.7046C18.8926 10.158 19.8948 9.88464 20.9638 9.88464C22.5089 9.88464 23.8063 10.4094 24.8559 11.459C25.9054 12.5085 26.4302 13.8059 26.4302 15.3511C26.4302 16.1577 26.2812 16.9594 25.9832 17.7563C25.6843 18.5548 25.1595 19.4464 24.4088 20.4312C23.6581 21.416 22.6381 22.5534 21.3488 23.8435C20.0596 25.1328 18.4156 26.6828 16.4169 28.4936L15.4973 29.3257ZM15.4973 27.6809C17.4409 25.9236 19.0404 24.4189 20.2956 23.1669C21.5509 21.9148 22.5429 20.8276 23.2718 19.9052C24.0007 18.9828 24.5068 18.1669 24.7903 17.4575C25.0737 16.7464 25.2154 16.0443 25.2154 15.3511C25.2154 14.1363 24.8105 13.124 24.0007 12.3142C23.1908 11.5043 22.1785 11.0994 20.9638 11.0994C19.9968 11.0994 19.1044 11.3756 18.2864 11.9279C17.4685 12.4802 16.7372 13.3115 16.0926 14.4218H14.9045C14.2429 13.2961 13.5071 12.4608 12.6973 11.9157C11.8875 11.3715 10.9991 11.0994 10.0321 11.0994C8.83354 11.0994 7.82528 11.5043 7.00734 12.3142C6.1894 13.124 5.78003 14.1363 5.77922 15.3511C5.77922 16.0443 5.92094 16.7464 6.20439 17.4575C6.48783 18.1685 6.99398 18.9844 7.72284 19.9052C8.4517 20.826 9.44375 21.9092 10.699 23.1547C11.9543 24.4002 13.5537 25.909 15.4973 27.6809Z" fill="#2B2B28"/>
</svg>
