<svg width="30" height="30" viewBox="0 0 30 30" fill="none" xmlns="http://www.w3.org/2000/svg">
<path fill-rule="evenodd" clip-rule="evenodd" d="M24.1061 15.8066C24.9899 14.9088 25.4809 13.6967 25.4711 12.4369C25.4613 11.1772 24.9514 9.9729 24.0536 9.08907C23.6091 8.65144 23.0827 8.30565 22.5046 8.07144C21.9264 7.83724 21.3078 7.7192 20.684 7.72408C19.4242 7.73392 18.2199 8.24381 17.3361 9.14157C17.0961 9.38157 16.7911 9.67615 16.4211 10.0253L15.3924 10.9941L14.3636 10.0253C13.9928 9.67532 13.6874 9.38073 13.4474 9.14157C12.5566 8.25077 11.3484 7.75033 10.0886 7.75033C8.82883 7.75033 7.62065 8.25077 6.72986 9.14157C4.89486 10.9778 4.87361 13.9466 6.66236 15.7916L15.3924 24.5216L24.1061 15.8066ZM5.66861 8.08157C6.24899 7.50103 6.93806 7.04051 7.69645 6.72631C8.45485 6.41212 9.26771 6.2504 10.0886 6.2504C10.9095 6.2504 11.7224 6.41212 12.4808 6.72631C13.2392 7.04051 13.9282 7.50103 14.5086 8.08157C14.7361 8.3099 15.0307 8.59407 15.3924 8.93407C15.7524 8.59407 16.0469 8.30948 16.2761 8.08032C17.4392 6.89928 19.0239 6.22866 20.6815 6.216C22.3391 6.20334 23.9338 6.84968 25.1149 8.01282C26.2959 9.17596 26.9665 10.7606 26.9792 12.4182C26.9918 14.0758 26.3455 15.6705 25.1824 16.8516L16.2761 25.7591C16.0417 25.9934 15.7238 26.1251 15.3924 26.1251C15.0609 26.1251 14.743 25.9934 14.5086 25.7591L5.59986 16.8503C4.45741 15.6721 3.82424 14.0917 3.83711 12.4506C3.84997 10.8095 4.50783 9.23926 5.66861 8.07907V8.08157Z" fill="black"/>
</svg>
