<svg width="26" height="26" viewBox="0 0 26 26" fill="none" xmlns="http://www.w3.org/2000/svg">
<path d="M13.3838 2.12207C11.7262 2.12207 10.1365 2.78055 8.96437 3.95265C7.79227 5.12476 7.13379 6.71447 7.13379 8.37207C7.13379 9.8502 7.44837 10.8179 8.30566 11.8877L13.3838 17.7471L18.4619 11.8877C19.3192 10.8179 19.6338 9.8502 19.6338 8.37207C19.6338 6.71447 18.9753 5.12476 17.8032 3.95265C16.6311 2.78055 15.0414 2.12207 13.3838 2.12207Z" stroke="black" stroke-linecap="round" stroke-linejoin="round"/>
<path d="M6.09229 15.8125C4.16416 16.5698 2.96729 17.6229 2.96729 18.7885C2.96729 21.0906 7.63083 22.9552 13.384 22.9552C19.1371 22.9552 23.8006 21.0906 23.8006 18.7885C23.8006 17.6229 22.6037 16.5698 20.6756 15.8125" stroke="black" stroke-linecap="round" stroke-linejoin="round"/>
<path d="M13.384 9.41341C13.9592 9.41341 14.4256 8.94704 14.4256 8.37174C14.4256 7.79645 13.9592 7.33008 13.384 7.33008C12.8087 7.33008 12.3423 7.79645 12.3423 8.37174C12.3423 8.94704 12.8087 9.41341 13.384 9.41341Z" stroke="black" stroke-linecap="round" stroke-linejoin="round"/>
</svg>
