<svg width="23" height="23" viewBox="0 0 23 23" fill="none" xmlns="http://www.w3.org/2000/svg">
<path d="M11.5003 12.8417L6.80443 17.5376C6.62873 17.7133 6.40512 17.8011 6.13359 17.8011C5.86207 17.8011 5.63845 17.7133 5.46276 17.5376C5.28707 17.3619 5.19922 17.1383 5.19922 16.8667C5.19922 16.5952 5.28707 16.3716 5.46276 16.1959L10.1586 11.5001L5.46276 6.80424C5.28707 6.62855 5.19922 6.40494 5.19922 6.13341C5.19922 5.86188 5.28707 5.63827 5.46276 5.46258C5.63845 5.28688 5.86207 5.19904 6.13359 5.19904C6.40512 5.19904 6.62873 5.28688 6.80443 5.46258L11.5003 10.1584L16.1961 5.46258C16.3718 5.28688 16.5954 5.19904 16.8669 5.19904C17.1385 5.19904 17.3621 5.28688 17.5378 5.46258C17.7135 5.63827 17.8013 5.86188 17.8013 6.13341C17.8013 6.40494 17.7135 6.62855 17.5378 6.80424L12.8419 11.5001L17.5378 16.1959C17.7135 16.3716 17.8013 16.5952 17.8013 16.8667C17.8013 17.1383 17.7135 17.3619 17.5378 17.5376C17.3621 17.7133 17.1385 17.8011 16.8669 17.8011C16.5954 17.8011 16.3718 17.7133 16.1961 17.5376L11.5003 12.8417Z" fill="black"/>
</svg>
