<svg width="22" height="27" viewBox="0 0 22 27" fill="none" xmlns="http://www.w3.org/2000/svg">
<path d="M16.8654 10.9985C17.067 10.799 17.1803 10.5284 17.1803 10.2462C17.1803 9.96403 17.067 9.69341 16.8654 9.49389C16.6638 9.29436 16.3904 9.18227 16.1053 9.18227C15.8201 9.18227 15.5467 9.29436 15.3451 9.49389L9.66316 15.1192L7.20227 12.6817C7.10245 12.5829 6.98394 12.5045 6.85351 12.451C6.72308 12.3976 6.58328 12.37 6.44211 12.37C6.30093 12.37 6.16113 12.3976 6.0307 12.451C5.90027 12.5045 5.78176 12.5829 5.68194 12.6817C5.58211 12.7804 5.50292 12.8977 5.4489 13.0268C5.39487 13.1559 5.36706 13.2942 5.36706 13.434C5.36706 13.5737 5.39487 13.712 5.4489 13.8411C5.50292 13.9702 5.58211 14.0875 5.68194 14.1863L8.90299 17.374C9.00273 17.473 9.12121 17.5515 9.25165 17.6051C9.38209 17.6586 9.52193 17.6862 9.66316 17.6862C9.80439 17.6862 9.94422 17.6586 10.0747 17.6051C10.2051 17.5515 10.3236 17.473 10.4233 17.374L16.8654 10.9985ZM11.497 0.995315C11.2957 0.796111 11.0226 0.684204 10.7379 0.684204C10.4532 0.684204 10.1802 0.796111 9.97882 0.995315C7.30964 3.63266 4.35916 4.93326 1.07368 4.93326C0.788925 4.93326 0.51583 5.04522 0.314475 5.24449C0.11312 5.44376 0 5.71404 0 5.99585V12.3735C0 19.2144 3.52383 23.8643 10.3976 26.1298C10.6178 26.2024 10.8559 26.2024 11.0761 26.1298C17.9477 23.8643 21.4737 19.2144 21.4737 12.3735V5.99585C21.4737 5.71404 21.3606 5.44376 21.1592 5.24449C20.9579 5.04522 20.6848 4.93326 20.4 4.93326C17.1124 4.93326 14.1597 3.63691 11.497 0.995315ZM2.14737 7.01593C5.32547 6.77792 8.19006 5.47306 10.7368 3.20762C13.2815 5.47306 16.1482 6.77792 19.3263 7.01593V12.3714C19.3263 15.4189 18.5468 17.8224 17.1339 19.6905C15.7638 21.5011 13.6787 22.9696 10.7368 23.9982C7.79495 22.9717 5.70985 21.5011 4.33983 19.6905C2.92686 17.8224 2.14737 15.421 2.14737 12.3735V7.01593Z" fill="#FDFDFD"/>
</svg>
