<svg width="17" height="24" viewBox="0 0 17 24" fill="none" xmlns="http://www.w3.org/2000/svg">
<path d="M8 18.9141C11.797 18.9141 14.875 15.836 14.875 12.0391C14.875 8.2421 11.797 5.16406 8 5.16406C4.20304 5.16406 1.125 8.2421 1.125 12.0391C1.125 15.836 4.20304 18.9141 8 18.9141Z" stroke="black"/>
<path d="M3.625 6.41406L4.13375 2.34531C4.16574 2.08834 4.29047 1.85189 4.48451 1.68041C4.67856 1.50893 4.92854 1.41421 5.1875 1.41406H10.8125C11.3475 1.41406 11.8 1.81406 11.8663 2.34531L12.375 6.41406M3.625 17.6641L4.13375 21.7328C4.16574 21.9898 4.29047 22.2262 4.48451 22.3977C4.67856 22.5692 4.92854 22.6639 5.1875 22.6641H10.8125C11.0715 22.6639 11.3214 22.5692 11.5155 22.3977C11.7095 22.2262 11.8343 21.9898 11.8663 21.7328L12.375 17.6641" stroke="black" stroke-linecap="round" stroke-linejoin="round"/>
<path d="M15.6875 10.7891H14.875V13.2891H15.6875C16.275 13.2891 16.75 12.8141 16.75 12.2266V11.8516C16.75 11.5698 16.6381 11.2995 16.4388 11.1003C16.2395 10.901 15.9693 10.7891 15.6875 10.7891Z" fill="black"/>
<path d="M5.5 8.91406L8 12.0391L11.125 12.6641" stroke="black" stroke-linecap="round"/>
</svg>
