<svg width="30" height="31" viewBox="0 0 30 31" fill="none" xmlns="http://www.w3.org/2000/svg">
<path d="M15 21.9141C18.797 21.9141 21.875 18.836 21.875 15.0391C21.875 11.2421 18.797 8.16406 15 8.16406C11.203 8.16406 8.125 11.2421 8.125 15.0391C8.125 18.836 11.203 21.9141 15 21.9141Z" stroke="black"/>
<path d="M10.625 9.41406L11.1337 5.34531C11.1657 5.08834 11.2905 4.85189 11.4845 4.68041C11.6786 4.50893 11.9285 4.41421 12.1875 4.41406H17.8125C18.3475 4.41406 18.8 4.81406 18.8663 5.34531L19.375 9.41406M10.625 20.6641L11.1337 24.7328C11.1657 24.9898 11.2905 25.2262 11.4845 25.3977C11.6786 25.5692 11.9285 25.6639 12.1875 25.6641H17.8125C18.0715 25.6639 18.3214 25.5692 18.5155 25.3977C18.7095 25.2262 18.8343 24.9898 18.8663 24.7328L19.375 20.6641" stroke="black" stroke-linecap="round" stroke-linejoin="round"/>
<path d="M22.6875 13.7891H21.875V16.2891H22.6875C23.275 16.2891 23.75 15.8141 23.75 15.2266V14.8516C23.75 14.5698 23.6381 14.2995 23.4388 14.1003C23.2395 13.901 22.9693 13.7891 22.6875 13.7891Z" fill="black"/>
<path d="M12.5 11.9141L15 15.0391L18.125 15.6641" stroke="black" stroke-linecap="round"/>
</svg>
