<svg width="53" height="54" viewBox="0 0 53 54" fill="none" xmlns="http://www.w3.org/2000/svg">
<path d="M0.415626 22.5693C-0.599331 28.6074 0.510729 34.8106 3.55667 40.1219C6.6026 45.4333 11.396 49.5242 17.12 51.6976C22.844 53.8711 29.1446 53.9925 34.9481 52.0413C40.7517 50.0901 45.6991 46.1869 48.9475 40.9969C52.1959 35.8069 53.5442 29.6511 52.7627 23.5784C51.9812 17.5057 49.1182 11.8918 44.6616 7.69334C40.205 3.49486 34.4306 0.97153 28.3221 0.553294C22.2136 0.135058 16.1491 1.84779 11.1618 5.39967L12.592 7.40784C17.1147 4.18686 22.6142 2.63368 28.1537 3.01295C33.6931 3.39223 38.9296 5.68049 42.9711 9.48784C47.0125 13.2952 49.6087 18.3861 50.3174 23.893C51.0261 29.4 49.8034 34.9824 46.8577 39.6889C43.9119 44.3955 39.4254 47.935 34.1625 49.7044C28.8996 51.4739 23.186 51.3637 17.9952 49.3928C12.8044 47.4218 8.45755 43.712 5.69536 38.8955C2.93318 34.0789 1.92653 28.4536 2.84693 22.978L0.415626 22.5693Z" fill="#051223"/>
</svg>
