<svg width="61" height="62" viewBox="0 0 61 62" fill="none" xmlns="http://www.w3.org/2000/svg">
<path d="M4.41563 26.5693C3.40067 32.6074 4.51073 38.8106 7.55667 44.1219C10.6026 49.4333 15.396 53.5242 21.12 55.6976C26.844 57.8711 33.1446 57.9925 38.9481 56.0413C44.7517 54.0901 49.6991 50.1869 52.9475 44.9969C56.1959 39.8069 57.5442 33.6511 56.7627 27.5784C55.9812 21.5057 53.1182 15.8918 48.6616 11.6933C44.205 7.49486 38.4306 4.97153 32.3221 4.55329C26.2136 4.13506 20.1491 5.84779 15.1618 9.39967L16.592 11.4078C21.1147 8.18686 26.6142 6.63368 32.1537 7.01295C37.6931 7.39223 42.9296 9.68049 46.9711 13.4878C51.0125 17.2952 53.6087 22.3861 54.3174 27.893C55.0261 33.4 53.8034 38.9824 50.8577 43.6889C47.9119 48.3955 43.4254 51.935 38.1625 53.7044C32.8996 55.4739 27.186 55.3637 21.9952 53.3928C16.8044 51.4218 12.4575 47.712 9.69536 42.8955C6.93318 38.0789 5.92653 32.4536 6.84693 26.978L4.41563 26.5693Z" fill="#051223"/>
<g clip-path="url(#clip0_771_516)">
<path d="M12.0809 13.8104L13.234 7.00426C13.2732 6.77276 13.2257 6.57537 13.0914 6.41211C12.9571 6.24884 12.7728 6.1581 12.5383 6.13987C12.3039 6.12165 12.0958 6.18339 11.9139 6.3251C11.7321 6.46681 11.6214 6.65356 11.5818 6.88534L10.3641 14.0031C10.3327 14.1883 10.3384 14.3647 10.3812 14.5323C10.4239 14.6999 10.494 14.8462 10.5915 14.9712C10.6889 15.0962 10.8136 15.1999 10.9657 15.2823C11.1178 15.3647 11.2875 15.4133 11.4747 15.4281L18.6841 15.9982C18.9181 16.0167 19.1271 15.9511 19.3109 15.8015C19.4947 15.6518 19.6059 15.4612 19.6445 15.2296C19.6831 14.9981 19.6378 14.799 19.5085 14.6323C19.3792 14.4657 19.1972 14.3731 18.9625 14.3546L12.0809 13.8104Z" fill="#051223"/>
</g>
<path d="M23.1933 38.5964V24.1298L24.1358 25.16H19.73V23.2531H25.3633V38.5964H23.1933ZM28.5003 34.8263V33.292L36.3473 23.2531H38.7146L30.9333 33.292L29.8154 32.9413H42.0682V34.8263H28.5003ZM37.0268 38.5964V34.8263L37.0925 32.9413V29.6096H39.1529V38.5964H37.0268Z" fill="#051223"/>
<defs>
<clipPath id="clip0_771_516">
<rect width="12.7031" height="12.7031" fill="white" transform="matrix(0.788746 -0.614719 -0.614719 -0.788746 13.541 19.4673)"/>
</clipPath>
</defs>
</svg>
