<svg width="60" height="47" viewBox="0 0 60 47" fill="none" xmlns="http://www.w3.org/2000/svg">
<g clip-path="url(#clip0_331_1519)">
<path d="M16.3377 43.3463C14.3503 43.3463 12.658 42.6487 11.2611 41.2537C9.86412 39.8644 9.16564 38.1731 9.16564 36.1799H4.51897C4.11192 36.1799 3.77176 36.0423 3.49848 35.7671C3.2252 35.4919 3.08761 35.1508 3.0857 34.7437C3.08378 34.3367 3.22138 33.9965 3.49848 33.7233C3.77558 33.45 4.11574 33.3133 4.51897 33.3133H9.89948C10.4174 32.0387 11.2534 31.0029 12.4077 30.206C13.562 29.411 14.8701 29.0135 16.332 29.0135C17.7939 29.0135 19.103 29.411 20.2592 30.206C21.4115 31.0029 22.2466 32.0387 22.7645 33.3133H36.0022L42.2972 6.08115H12.6399C12.2328 6.08115 11.8917 5.94355 11.6165 5.66836C11.3413 5.39317 11.2047 5.05206 11.2066 4.64501C11.2085 4.23796 11.3452 3.89779 11.6165 3.62452C11.8879 3.35124 12.229 3.2146 12.6399 3.2146H42.9594C43.6932 3.2146 44.2913 3.5089 44.7538 4.0975C45.2182 4.68609 45.3672 5.34158 45.201 6.06395L43.5585 13.2475H47.2018C47.9357 13.2475 48.6303 13.4119 49.2858 13.7406C49.9432 14.0673 50.484 14.5203 50.9083 15.0993L56.0595 21.9733C56.4761 22.5313 56.7465 23.1132 56.8707 23.719C56.9968 24.3229 57.0064 24.9574 56.8994 25.6224L55.1852 34.3281C55.0782 34.8861 54.8068 35.3343 54.3711 35.6725C53.9354 36.0108 53.4404 36.1799 52.8862 36.1799H51.5017C51.5017 38.1654 50.806 39.8567 49.4148 41.2537C48.0236 42.6506 46.3323 43.3482 44.341 43.3463C42.3497 43.3443 40.6575 42.6468 39.2644 41.2537C37.8693 39.8624 37.1718 38.1712 37.1718 36.1799H23.4984C23.4984 38.1654 22.8028 39.8567 21.4115 41.2537C20.0203 42.6506 18.329 43.3482 16.3377 43.3463ZM40.3737 26.8636H53.706L54.2134 24.3124L48.0847 16.1141H42.8734L40.3737 26.8636ZM36.6959 30.4411L37.0686 28.7785C37.317 27.6701 37.6324 26.3132 38.0146 24.708C38.2305 23.8289 38.4197 23.0167 38.5821 22.2714C38.7427 21.5261 38.8707 20.9088 38.9663 20.4196L39.3389 18.757C39.5873 17.6486 39.9027 16.2918 40.2849 14.6865C40.6671 13.0813 40.9824 11.7244 41.2308 10.616L41.6035 8.95343L42.2972 6.08115L35.9994 33.3133L36.6959 30.4411ZM1.39443 26.1412C1.00267 26.1412 0.674931 26.0036 0.411208 25.7285C0.147486 25.4533 0.015625 25.1131 0.015625 24.708C0.015625 24.3028 0.152264 23.9617 0.425541 23.6846C0.698818 23.4075 1.03994 23.2709 1.4489 23.2747H11.4245C11.8315 23.2747 12.1726 23.4123 12.4478 23.6875C12.723 23.9627 12.8597 24.3038 12.8578 24.7108C12.8558 25.1179 12.7192 25.458 12.4478 25.7313C12.1765 26.0046 11.8353 26.1412 11.4245 26.1412H1.39443ZM7.12753 16.1198C6.72048 16.1198 6.37936 15.9822 6.10417 15.707C5.82898 15.4318 5.69139 15.0907 5.69139 14.6837C5.69139 14.2766 5.82898 13.9364 6.10417 13.6632C6.37936 13.3899 6.71952 13.2532 7.12466 13.2532H20.0241C20.4312 13.2532 20.7723 13.3908 21.0475 13.666C21.3208 13.9412 21.4574 14.2823 21.4574 14.6894C21.4574 15.0964 21.3208 15.4366 21.0475 15.7099C20.7742 15.9832 20.4331 16.1198 20.0241 16.1198H7.12753ZM16.332 40.4797C17.5111 40.4797 18.523 40.0583 19.3677 39.2156C20.2104 38.3709 20.6318 37.359 20.6318 36.1799C20.6318 35.0008 20.2104 33.9889 19.3677 33.1442C18.5249 32.2995 17.513 31.8782 16.332 31.8801C15.151 31.882 14.1391 32.3034 13.2963 33.1442C12.4536 33.9889 12.0322 35.0008 12.0322 36.1799C12.0322 37.359 12.4536 38.3709 13.2963 39.2156C14.141 40.0583 15.1529 40.4797 16.332 40.4797ZM44.3382 40.4797C45.5173 40.4797 46.5282 40.0583 47.371 39.2156C48.2137 38.3709 48.6351 37.359 48.6351 36.1799C48.6351 35.0008 48.2137 33.9889 47.371 33.1442C46.5282 32.2995 45.5163 31.8782 44.3353 31.8801C43.1543 31.882 42.1433 32.3034 41.3025 33.1442C40.4578 33.9889 40.0355 35.0008 40.0355 36.1799C40.0355 37.359 40.4569 38.3709 41.2996 39.2156C42.1443 40.0583 43.1571 40.4797 44.3382 40.4797Z" fill="#051223"/>
</g>
<defs>
<clipPath id="clip0_331_1519">
<rect width="59.5211" height="45.6071" fill="white" transform="translate(0.240234 0.476807)"/>
</clipPath>
</defs>
</svg>
