<svg width="33" height="33" viewBox="0 0 33 33" fill="none" xmlns="http://www.w3.org/2000/svg">
<path d="M16.2366 19.106C21.7821 19.106 26.2828 21.209 26.2828 23.7942V27.1429H6.19043V23.7942C6.19043 21.209 10.6911 19.106 16.2366 19.106ZM24.9433 23.7942C24.9433 21.9457 21.0454 20.4455 16.2366 20.4455C11.4278 20.4455 7.52992 21.9457 7.52992 23.7942V25.8034H24.9433V23.7942ZM16.2366 7.05054C17.48 7.05054 18.6725 7.54447 19.5517 8.42369C20.4309 9.3029 20.9249 10.4954 20.9249 11.7388C20.9249 12.9822 20.4309 14.1746 19.5517 15.0538C18.6725 15.9331 17.48 16.427 16.2366 16.427C14.9932 16.427 13.8008 15.9331 12.9216 15.0538C12.0423 14.1746 11.5484 12.9822 11.5484 11.7388C11.5484 10.4954 12.0423 9.3029 12.9216 8.42369C13.8008 7.54447 14.9932 7.05054 16.2366 7.05054ZM16.2366 8.39003C15.3485 8.39003 14.4967 8.74284 13.8687 9.37085C13.2407 9.99886 12.8879 10.8506 12.8879 11.7388C12.8879 12.6269 13.2407 13.4787 13.8687 14.1067C14.4967 14.7347 15.3485 15.0875 16.2366 15.0875C17.1248 15.0875 17.9765 14.7347 18.6045 14.1067C19.2325 13.4787 19.5854 12.6269 19.5854 11.7388C19.5854 10.8506 19.2325 9.99886 18.6045 9.37085C17.9765 8.74284 17.1248 8.39003 16.2366 8.39003Z" fill="#2B2B28"/>
</svg>
