<svg width="30" height="30" viewBox="0 0 30 30" fill="none" xmlns="http://www.w3.org/2000/svg">
<path d="M4.94737 14.727C4.42712 14.2163 4.01492 13.6084 3.7348 12.9387C3.45469 12.269 3.31225 11.5509 3.31579 10.8263C3.31579 9.36067 3.90496 7.95511 4.95368 6.91879C6.0024 5.88246 7.42478 5.30026 8.90789 5.30026C10.9868 5.30026 12.8026 6.41846 13.7632 8.08276H15.2368C15.7252 7.23638 16.4317 6.533 17.2846 6.04422C18.1375 5.55545 19.1062 5.29875 20.0921 5.30026C21.5752 5.30026 22.9976 5.88246 24.0463 6.91879C25.095 7.95511 25.6842 9.36067 25.6842 10.8263C25.6842 12.3475 25.0263 13.7518 24.0526 14.727L14.5 24.1537L4.94737 14.727ZM24.9737 15.6501C26.2237 14.4019 27 12.7116 27 10.8263C27 9.01583 26.2722 7.27955 24.9767 5.99938C23.6812 4.71921 21.9242 4.00002 20.0921 4.00002C17.7895 4.00002 15.75 5.10522 14.5 6.82153C13.862 5.94582 13.0218 5.23306 12.0493 4.74236C11.0768 4.25167 9.99986 3.99719 8.90789 4.00002C7.07581 4.00002 5.31876 4.71921 4.02328 5.99938C2.72779 7.27955 2 9.01583 2 10.8263C2 12.7116 2.77632 14.4019 4.02632 15.6501L14.5 26L24.9737 15.6501Z" fill="black"/>
</svg>
