<svg width="11" height="24" viewBox="0 0 11 24" fill="none" xmlns="http://www.w3.org/2000/svg">
<g clip-path="url(#clip0_745_332)">
<path d="M0.272657 3.687C0.182439 3.59153 0.11191 3.47923 0.065094 3.3565C0.0182781 3.23377 -0.00390625 3.10302 -0.000191689 2.97172C0.00352287 2.84042 0.0330629 2.71113 0.0867414 2.59125C0.14042 2.47136 0.217186 2.36322 0.312657 2.273C0.408129 2.18279 0.520435 2.11226 0.643164 2.06544C0.765892 2.01863 0.89664 1.99644 1.02794 2.00016C1.15924 2.00387 1.28853 2.03341 1.40841 2.08709C1.5283 2.14077 1.63644 2.21753 1.72666 2.313L10.2267 11.313C10.4022 11.4987 10.5 11.7445 10.5 12C10.5 12.2555 10.4022 12.5013 10.2267 12.687L1.72666 21.688C1.63704 21.7856 1.52892 21.8643 1.40859 21.9198C1.28827 21.9752 1.15813 22.0062 1.02573 22.0109C0.893337 22.0156 0.761328 21.9939 0.637371 21.9472C0.513414 21.9004 0.399981 21.8295 0.30366 21.7386C0.20734 21.6476 0.130052 21.5384 0.0762854 21.4173C0.0225191 21.2963 -0.00665283 21.1657 -0.0095377 21.0333C-0.0124226 20.9008 0.0110388 20.7691 0.0594826 20.6458C0.107926 20.5225 0.180387 20.4101 0.272657 20.315L8.12466 12L0.272657 3.687Z" fill="black"/>
</g>
<defs>
<clipPath id="clip0_745_332">
<rect width="11" height="24" fill="white" transform="matrix(-1 0 0 1 11 0)"/>
</clipPath>
</defs>
</svg>
