<svg width="25" height="33" viewBox="0 0 25 33" fill="none" xmlns="http://www.w3.org/2000/svg">
<path d="M4.0609 23.2954L2.79856 15.7675C2.60774 14.6289 2.51233 14.0606 2.81848 13.6874C3.12358 13.3141 3.68555 13.3141 4.80845 13.3141H20.3549C21.4778 13.3141 22.0398 13.3141 22.3449 13.6874C22.6511 14.0606 22.5546 14.6289 22.3648 15.7675L21.1025 23.2954C20.6842 25.7907 20.4755 27.0374 19.621 27.7776C18.7676 28.5167 17.5367 28.5167 15.0749 28.5167H10.0885C7.62669 28.5167 6.39581 28.5167 5.54236 27.7765C4.68787 27.0374 4.47923 25.7897 4.0609 23.2944M18.3482 13.3141C18.3482 11.7847 17.7407 10.318 16.6592 9.23658C15.5778 8.15515 14.1111 7.54761 12.5817 7.54761C11.0523 7.54761 9.58559 8.15515 8.50416 9.23658C7.42273 10.318 6.81519 11.7847 6.81519 13.3141" stroke="#2B2B28" stroke-width="1.04846" stroke-linecap="round" stroke-linejoin="round"/>
</svg>
