<svg width="30" height="30" viewBox="0 0 30 30" fill="none" xmlns="http://www.w3.org/2000/svg">
<path d="M24.1408 15C24.1403 13.5495 23.7943 12.1199 23.1314 10.8297C22.4685 9.53952 21.5077 8.42583 20.3287 7.58086L19.5822 3.45703C19.5136 3.0788 19.3143 2.73669 19.0192 2.49039C18.724 2.24408 18.3518 2.10924 17.9674 2.10938H12.033C11.6486 2.10924 11.2763 2.24408 10.9812 2.49039C10.6861 2.73669 10.4868 3.0788 10.4181 3.45703L9.67166 7.58086C8.49226 8.42547 7.53121 9.53909 6.86821 10.8294C6.20521 12.1196 5.85938 13.5494 5.85938 15C5.85938 16.4506 6.20521 17.8804 6.86821 19.1706C7.53121 20.4609 8.49226 21.5745 9.67166 22.4191L10.4181 26.543C10.4868 26.9212 10.6861 27.2633 10.9812 27.5096C11.2763 27.7559 11.6486 27.8908 12.033 27.8906H17.9674C18.3518 27.8908 18.724 27.7559 19.0192 27.5096C19.3143 27.2633 19.5136 26.9212 19.5822 26.543L20.3287 22.4191C21.5077 21.5742 22.4685 20.4605 23.1314 19.1703C23.7943 17.8801 24.1403 16.4505 24.1408 15ZM11.8021 3.70781C11.8121 3.65321 11.8411 3.60393 11.8841 3.56873C11.927 3.53354 11.981 3.51472 12.0365 3.51563H17.9709C18.0264 3.51472 18.0804 3.53354 18.1233 3.56873C18.1662 3.60393 18.1953 3.65321 18.2053 3.70781L18.7396 6.65977C17.566 6.13219 16.2939 5.85941 15.0072 5.85941C13.7205 5.85941 12.4484 6.13219 11.2748 6.65977L11.8021 3.70781ZM18.1982 26.2922C18.1882 26.3468 18.1592 26.3961 18.1163 26.4313C18.0734 26.4665 18.0193 26.4853 17.9638 26.4844H12.033C11.9775 26.4853 11.9235 26.4665 11.8806 26.4313C11.8376 26.3961 11.8086 26.3468 11.7986 26.2922L11.2642 23.3402C12.4378 23.8678 13.7099 24.1406 14.9967 24.1406C16.2834 24.1406 17.5555 23.8678 18.7291 23.3402L18.1982 26.2922ZM15.0002 22.7344C13.4705 22.7344 11.9751 22.2808 10.7032 21.4309C9.43127 20.581 8.43994 19.3731 7.85454 17.9598C7.26915 16.5465 7.11598 14.9914 7.41441 13.4911C7.71285 11.9908 8.44947 10.6126 9.53115 9.53097C10.6128 8.4493 11.991 7.71267 13.4913 7.41424C14.9916 7.11581 16.5467 7.26897 17.96 7.85437C19.3733 8.43977 20.5812 9.4311 21.4311 10.703C22.2809 11.9749 22.7346 13.4703 22.7346 15C22.7321 17.0505 21.9164 19.0163 20.4665 20.4663C19.0165 21.9162 17.0507 22.7319 15.0002 22.7344ZM20.3908 15C20.3908 15.1865 20.3167 15.3653 20.1849 15.4972C20.053 15.629 19.8742 15.7031 19.6877 15.7031H15.0002C14.8137 15.7031 14.6349 15.629 14.503 15.4972C14.3711 15.3653 14.297 15.1865 14.297 15V10.3125C14.297 10.126 14.3711 9.94718 14.503 9.81532C14.6349 9.68345 14.8137 9.60938 15.0002 9.60938C15.1867 9.60938 15.3655 9.68345 15.4974 9.81532C15.6292 9.94718 15.7033 10.126 15.7033 10.3125V14.2969H19.6877C19.8742 14.2969 20.053 14.371 20.1849 14.5028C20.3167 14.6347 20.3908 14.8135 20.3908 15Z" fill="black"/>
</svg>
